#!OML:ASF F:\VICON\USERDATA\INSTALL\rory3\rory3.ASF
:FULLY-SPECIFIED
:DEGREES
285
root -0.745619 24.8774 1.42792 -0.0811719 1.05749 4.65798
lowerback 14.8412 -0.628744 -1.4497
upperback 1.12686 -1.01085 0.802814
thorax -7.09079 -0.433431 1.88344
lowerneck -12.2196 -0.504413 -4.18882
upperneck 6.86889 -0.410372 4.34998
head 4.05553 -0.0679534 1.98843
rclavicle 1.13307e-014 1.51076e-014
rhumerus -5.49185 10.09 -73.4973
rradius 15.692
rwrist 20.8673
rhand -29.1422 1.00293
rfingers 7.12502
rthumb -2.48906 -28.9623
lclavicle 1.13307e-014 1.51076e-014
lhumerus -17.37 3.02652 72.7048
lradius 16.1126
lwrist -10.2647
lhand -17.8991 21.616
lfingers 7.12502
lthumb 8.36769 51.4303
rfemur -23.712 13.2293 12.7112
rtibia 42.5283
rfoot 7.72681 -10.1683
rtoes -7.73625
lfemur -16.3357 1.83541 -20.5787
ltibia 29.251
lfoot 19.7311 4.28592
ltoes -7.04837
286
root -0.748371 24.8365 1.59323 0.0730693 1.14324 4.58529
lowerback 15.6497 -0.692947 -1.26317
upperback 1.33705 -1.06549 0.878617
thorax -7.31415 -0.462585 1.88361
lowerneck -12.3253 -0.494564 -4.17914
upperneck 6.64471 -0.386136 4.31787
head 4.00281 -0.0565118 1.97778
rclavicle 3.97569e-016 -9.54166e-015
rhumerus -6.42289 9.19258 -74.0641
rradius 15.3499
rwrist 21.5052
rhand -29.1314 1.32888
rfingers 7.12502
rthumb -2.47856 -28.6365
lclavicle 3.97569e-016 -9.54166e-015
lhumerus -18.1081 4.99585 72.2753
lradius 13.9693
lwrist -15.5185
lhand -17.3347 21.9294
lfingers 7.12502
lthumb 8.91241 51.7212
rfemur -24.8653 13.2193 12.3016
rtibia 41.7095
rfoot 7.05496 -10.3556
rtoes -8.20784
lfemur -17.7909 1.87351 -20.5488
ltibia 28.9519
lfoot 19.5103 4.12145
ltoes -7.42612
287
root -0.750552 24.7813 1.76217 0.201055 1.3963 4.55333
lowerback 16.4017 -0.856746 -1.12404
upperback 1.5787 -1.25487 0.967286
thorax -7.46365 -0.556224 1.95418
lowerneck -12.418 -0.447979 -4.17367
upperneck 6.3994 -0.314166 4.30766
head 3.93949 -0.020529 1.97778
rclavicle -1.15295e-014 2.38542e-015
rhumerus -7.31641 8.55515 -74.6049
rradius 15.2601
rwrist 22.1289
rhand -28.9629 1.22484
rfingers 7.12502
rthumb -2.31584 -28.7423
lclavicle -1.15295e-014 2.38542e-015
lhumerus -19.0598 6.95576 71.7078
lradius 12.3423
lwrist -19.6481
lhand -17.2037 21.6932
lfingers 7.12502
lthumb 9.03883 51.4795
rfemur -25.9661 13.1547 11.8292
rtibia 40.9299
rfoot 6.46422 -10.8427
rtoes -7.24213
lfemur -19.1826 1.94997 -20.6179
ltibia 28.6311
lfoot 19.3255 3.81138
ltoes -8.1048
288
root -0.750171 24.7107 1.93457 0.242291 1.37923 4.6406
lowerback 17.2795 -0.934781 -1.21098
upperback 1.80235 -1.37117 1.06303
thorax -7.69708 -0.60574 2.15137
lowerneck -12.6256 -0.412918 -4.29456
upperneck 6.29251 -0.243965 4.38424
head 3.93751 0.0174927 2.02599
rclavicle -9.14409e-015 2.38542e-015
rhumerus -8.11811 8.60358 -75.0912
rradius 15.1228
rwrist 22.3345
rhand -29.2676 1.03807
rfingers 7.12502
rthumb -2.61016 -28.9257
lclavicle -9.14409e-015 2.38542e-015
lhumerus -20.2791 9.22826 71.0004
lradius 11.1716
lwrist -22.7442
lhand -17.5922 21.1356
lfingers 7.12502
lthumb 8.66389 50.9378
rfemur -27.0536 13.2808 11.21
rtibia 40.1511
rfoot 6.05664 -11.3127
rtoes -6.23413
lfemur -20.4166 2.28008 -20.8625
ltibia 28.3561
lfoot 19.0716 3.57229
ltoes -8.08666
289
root -0.750612 24.624 2.10522 0.246707 1.13195 4.67518
lowerback 18.1696 -0.907348 -1.25814
upperback 2.01963 -1.34208 1.1535
thorax -7.94834 -0.585914 2.28869
lowerneck -12.669 -0.395265 -4.35459
upperneck 5.96822 -0.198876 4.36604
head 3.84319 0.0377574 2.03169
rclavicle 1.74931e-014 3.97569e-015
rhumerus -8.90671 8.60837 -75.5246
rradius 14.9966
rwrist 22.4826
rhand -29.6193 1.42792
rfingers 7.12502
rthumb -2.9498 -28.5314
lclavicle 1.74931e-014 3.97569e-015
lhumerus -21.6334 12.8986 69.7244
lradius 10.1423
lwrist -26.6566
lhand -18.2989 20.179
lfingers 7.12502
lthumb 7.98181 50.0083
rfemur -28.1324 13.5455 10.6684
rtibia 39.3465
rfoot 5.84931 -11.8229
rtoes -6.47798
lfemur -21.6047 2.81513 -21.0756
ltibia 28.1066
lfoot 18.6366 3.48635
ltoes -8.6204
290
root -0.751753 24.5218 2.28141 0.229285 0.795434 4.57535
lowerback 18.8983 -0.852574 -1.16802
upperback 2.23011 -1.24641 1.26471
thorax -8.12169 -0.539446 2.34935
lowerneck -12.4975 -0.386671 -4.28608
upperneck 5.63519 -0.177757 4.14708
head 3.71228 0.0363126 1.95229
rclavicle 2.22639e-014 -1.35174e-014
rhumerus -9.81847 8.58245 -75.9499
rradius 15.0616
rwrist 22.4668
rhand -29.6545 1.58739
rfingers 7.12502
rthumb -2.98376 -28.3715
lclavicle 2.22639e-014 -1.35174e-014
lhumerus -22.9047 14.3734 69.2107
lradius 9.2378
lwrist -27.7372
lhand -19.6039 19.6372
lfingers 7.12502
lthumb 6.72223 49.5105
rfemur -29.1409 13.8683 10.3071
rtibia 38.4926
rfoot 5.71438 -12.4415
rtoes -7.71419
lfemur -22.7704 3.39289 -21.1576
ltibia 27.9508
lfoot 18.0543 3.7372
ltoes -9.5521
291
root -0.749394 24.4062 2.46576 0.180583 0.509856 4.65314
lowerback 19.524 -0.802812 -1.19677
upperback 2.44511 -1.18682 1.30631
thorax -8.22914 -0.508847 2.40792
lowerneck -12.2383 -0.436428 -4.32755
upperneck 5.04143 -0.215936 3.88485
head 3.89624 -0.0119845 2.08353
rclavicle -3.4191e-014 1.35174e-014
rhumerus -10.8149 8.85092 -76.4088
rradius 15.3224
rwrist 21.9718
rhand -29.4845 1.2386
rfingers 7.12502
rthumb -2.81964 -28.7225
lclavicle -3.4191e-014 1.35174e-014
lhumerus -24.3201 15.7363 68.5384
lradius 8.67685
lwrist -28.3117
lhand -20.8428 19.1395
lfingers 7.12502
lthumb 5.52608 49.0475
rfemur -29.9861 14.1114 9.75518
rtibia 37.5484
rfoot 5.67161 -13.1064
rtoes -9.13212
lfemur -23.9643 3.91775 -21.4757
ltibia 28.0859
lfoot 17.5855 4.35189
ltoes -9.3158
292
root -0.74918 24.2731 2.64923 0.262463 0.330191 4.44457
lowerback 20.0079 -0.796778 -0.896166
upperback 2.63105 -1.1072 1.41035
thorax -8.29584 -0.478568 2.33724
lowerneck -11.9829 -0.470789 -4.40473
upperneck 4.70518 -0.25605 3.92442
head 3.72933 -0.0324746 2.10058
rclavicle -1.94809e-014 3.18055e-015
rhumerus -11.7601 9.23821 -76.8569
rradius 15.6569
rwrist 21.1971
rhand -29.2378 1.03574
rfingers 7.12502
rthumb -2.5814 -28.9284
lclavicle -1.94809e-014 3.18055e-015
lhumerus -25.8274 16.925 67.7438
lradius 8.58305
lwrist -28.4751
lhand -21.6282 19.0201
lfingers 7.12502
lthumb 4.76777 48.9465
rfemur -30.882 14.3616 9.47659
rtibia 36.4958
rfoot 5.69839 -14.091
rtoes -8.71794
lfemur -25.1981 4.41611 -21.5201
ltibia 27.9731
lfoot 17.605 4.97049
ltoes -8.68841
293
root -0.756403 24.106 2.82305 0.630436 0.11329 3.37987
lowerback 20.4414 -0.867925 0.19153
upperback 2.67512 -0.930524 1.73933
thorax -8.50256 -0.421162 2.03652
lowerneck -11.7774 -0.446367 -4.42781
upperneck 4.42727 -0.223985 3.9463
head 3.58964 -0.0167481 2.10797
rclavicle 2.44505e-014 -1.43125e-014
rhumerus -12.7041 9.69539 -77.3462
rradius 15.9633
rwrist 20.2837
rhand -29.4873 1.04676
rfingers 7.12502
rthumb -2.82236 -28.9143
lclavicle 2.44505e-014 -1.43125e-014
lhumerus -27.4073 18.0258 66.7895
lradius 8.75589
lwrist -28.3615
lhand -21.4433 19.8495
lfingers 7.12502
lthumb 4.94629 49.7718
rfemur -32.136 14.881 10.0407
rtibia 35.3247
rfoot 5.86109 -15.4413
rtoes -7.16365
lfemur -26.7943 4.9231 -20.6037
ltibia 27.7289
lfoot 17.9339 5.68837
ltoes -8.25903
294
root -0.73974 23.9802 3.05227 0.283458 0.0781814 4.34462
lowerback 20.6054 -0.839343 -0.387289
upperback 3.01731 -1.04825 1.46298
thorax -8.20628 -0.468012 2.09526
lowerneck -11.6077 -0.459912 -4.48993
upperneck 4.39741 -0.237894 3.9336
head 3.54703 -0.0267731 2.11181
rclavicle -9.93923e-015 2.8625e-014
rhumerus -13.7812 10.1719 -77.8173
rradius 16.2419
rwrist 19.4158
rhand -30.1168 1.46983
rfingers 7.12502
rthumb -3.43028 -28.4823
lclavicle -9.93923e-015 2.8625e-014
lhumerus -29.0599 18.9984 65.7806
lradius 8.92134
lwrist -28.0219
lhand -20.8533 21.0911
lfingers 7.12502
lthumb 5.516 50.9993
rfemur -32.0185 14.6396 8.672
rtibia 34.0479
rfoot 5.97597 -15.9602
rtoes -7.13115
lfemur -26.9334 5.18562 -22.0294
ltibia 27.2265
lfoot 17.8871 6.35238
ltoes -7.7817
295
root -0.73251 23.825 3.27143 0.0659841 -0.00756761 4.82257
lowerback 20.8189 -0.757936 -0.646374
upperback 3.23344 -1.00876 1.36316
thorax -8.0827 -0.445417 2.12502
lowerneck -11.4581 -0.559939 -4.53761
upperneck 4.44518 -0.373848 3.96475
head 3.54213 -0.0951464 2.12141
rclavicle 1.98785e-015 -2.22639e-014
rhumerus -14.8504 10.5521 -78.2205
rradius 16.4165
rwrist 18.7978
rhand -30.3822 1.20553
rfingers 7.12502
rthumb -3.68657 -28.7423
lclavicle 1.98785e-015 -2.22639e-014
lhumerus -30.7834 19.7396 64.751
lradius 9.20123
lwrist -27.7303
lhand -20.5216 21.6716
lfingers 7.12502
lthumb 5.83628 51.5712
rfemur -32.0622 14.7781 7.74881
rtibia 32.6911
rfoot 6.18345 -16.9602
rtoes -7.40282
lfemur -27.2422 5.43701 -22.853
ltibia 26.6032
lfoot 17.9537 6.93609
ltoes -7.61913
296
root -0.728556 23.6473 3.49201 -0.0540505 -0.0740477 4.85646
lowerback 20.8393 -0.699114 -0.450393
upperback 3.44229 -0.888934 1.37456
thorax -7.87265 -0.39655 1.98961
lowerneck -11.3284 -0.689452 -4.44596
upperneck 4.46703 -0.557368 3.8481
head 3.53083 -0.190641 2.05136
rclavicle 1.47101e-014 1.43125e-014
rhumerus -15.8309 10.5241 -78.5512
rradius 16.5119
rwrist 18.6187
rhand -30.3004 0.54648
rfingers 7.12502
rthumb -3.60759 -29.4027
lclavicle 1.47101e-014 1.43125e-014
lhumerus -32.4704 20.2901 63.6675
lradius 9.5702
lwrist -27.6624
lhand -20.2729 22.0651
lfingers 7.12502
lthumb 6.07637 51.958
rfemur -32.1963 15.1146 7.2568
rtibia 31.3714
rfoot 6.35233 -18.2277
rtoes -6.9301
lfemur -27.404 5.5827 -23.1256
ltibia 25.5268
lfoot 18.2123 7.40926
ltoes -7.41089
297
root -0.721087 23.4551 3.72348 -0.27138 -0.0430623 4.94516
lowerback 20.7571 -0.687758 -0.178865
upperback 3.67199 -0.821603 1.31935
thorax -7.5851 -0.375272 1.75082
lowerneck -11.2331 -0.786731 -4.35289
upperneck 4.58466 -0.698702 3.73691
head 3.55757 -0.264971 1.98751
rclavicle 1.90833e-014 -3.18055e-015
rhumerus -16.8376 10.4688 -78.9338
rradius 16.5593
rwrist 18.2006
rhand -30.3229 0.444446
rfingers 7.12502
rthumb -3.6293 -29.5044
lclavicle 1.90833e-014 -3.18055e-015
lhumerus -34.08 20.7139 62.5114
lradius 9.92403
lwrist -27.4573
lhand -20.1427 22.1111
lfingers 7.12502
lthumb 6.20201 52.0003
rfemur -32.1215 15.3082 6.76548
rtibia 30.1276
rfoot 6.477 -19.3085
rtoes -6.74247
lfemur -27.3881 5.60437 -23.4327
ltibia 24.5372
lfoot 18.7697 7.77034
ltoes -6.4555
298
root -0.717891 23.2492 3.96103 -0.595943 0.0494359 5.29541
lowerback 20.7393 -0.646672 -0.240691
upperback 3.82042 -0.791492 1.21302
thorax -7.41533 -0.36223 1.66019
lowerneck -11.0599 -0.848472 -4.42178
upperneck 4.83683 -0.791037 3.84041
head 3.61908 -0.309831 2.03138
rclavicle -7.95139e-015 -1.59028e-014
rhumerus -18.013 10.7062 -79.4041
rradius 16.5464
rwrist 17.4331
rhand -30.5302 0.56282
rfingers 7.12502
rthumb -3.82951 -29.3825
lclavicle -7.95139e-015 -1.59028e-014
lhumerus -35.7799 21.0099 61.3086
lradius 10.3319
lwrist -27.1262
lhand -19.7973 22.3298
lfingers 7.12502
lthumb 6.5355 52.209
rfemur -31.8987 15.531 6.02591
rtibia 29.0015
rfoot 6.62285 -20.2891
rtoes -6.67212
lfemur -27.1958 5.5291 -23.97
ltibia 23.5503
lfoot 19.6879 8.0758
ltoes -5.12583
299
root -0.717748 23.0265 4.2004 -0.919715 0.0737674 5.52348
lowerback 20.7294 -0.576434 -0.275553
upperback 3.86249 -0.708092 1.20745
thorax -7.3663 -0.321864 1.65117
lowerneck -10.7833 -0.914709 -4.55418
upperneck 5.19738 -0.879027 3.84029
head 3.69783 -0.360002 2.05249
rclavicle 2.38542e-015 -7.95139e-016
rhumerus -19.2798 10.9912 -79.7791
rradius 16.4267
rwrist 16.9346
rhand -30.7739 0.631382
rfingers 7.12502
rthumb -4.06476 -29.3096
lclavicle 2.38542e-015 -7.95139e-016
lhumerus -37.2155 20.0019 61.1142
lradius 10.628
lwrist -25.4096
lhand -19.7479 22.8354
lfingers 7.12502
lthumb 6.58319 52.7131
rfemur -31.7275 15.9193 5.41875
rtibia 28.0261
rfoot 7.19526 -21.0605
rtoes -6.42904
lfemur -26.917 5.51036 -24.3327
ltibia 22.5138
lfoot 20.6947 8.49466
ltoes -3.93107
